<?xml version="1.0" standalone="no"?>
<!DOCTYPE svg PUBLIC "-//W3C//DTD SVG 20010904//EN"
 "http://www.w3.org/TR/2001/REC-SVG-20010904/DTD/svg10.dtd">
<svg version="1.0" xmlns="http://www.w3.org/2000/svg"
 width="945.000000pt" height="109.000000pt" viewBox="0 0 945.000000 109.000000"
 preserveAspectRatio="xMidYMid meet">

<g transform="translate(0.000000,109.000000) scale(0.100000,-0.100000)"
fill="#000000" stroke="none">
<path d="M4720 582 c-162 -279 -303 -522 -313 -539 l-19 -33 65 0 64 0 238
411 c131 225 244 417 250 426 10 13 19 2 60 -68 27 -46 122 -211 211 -366
l163 -283 -34 0 c-33 0 -37 5 -81 80 l-46 80 -181 -2 -181 -3 -27 -45 c-15
-25 -28 -48 -28 -52 -1 -5 79 -8 177 -8 l177 0 46 -83 46 -82 163 -3 c128 -2
161 0 157 10 -4 11 -606 1059 -611 1065 -1 1 -134 -226 -296 -505z"/>
<path d="M3078 789 c-36 -18 -50 -39 -28 -39 19 0 90 40 90 50 0 15 -21 11
-62 -11z"/>
<path d="M5007 733 c-3 -4 -82 -147 -177 -318 -94 -171 -183 -329 -196 -352
l-25 -43 317 0 316 0 -25 43 -25 42 -211 3 c-116 1 -211 4 -211 7 0 7 230 419
239 428 5 5 35 -38 68 -95 l59 -103 52 -3 c29 -2 52 -1 52 1 0 5 -219 389
-225 395 -2 2 -5 0 -8 -5z"/>
<path d="M1360 710 c0 -15 7 -20 25 -20 30 0 30 -3 6 -127 l-18 -93 22 0 c20
0 24 9 40 110 l19 109 30 3 c20 2 32 9 34 21 3 15 -6 17 -77 17 -74 0 -81 -2
-81 -20z"/>
<path d="M1585 718 c-4 -14 -45 -231 -45 -241 0 -4 34 -7 75 -7 68 0 75 2 75
20 0 17 -7 20 -50 20 -52 0 -55 4 -44 47 5 19 14 23 57 25 40 2 53 7 55 21 3
14 -4 17 -47 17 -53 0 -56 4 -45 47 5 19 14 23 57 25 40 2 53 7 55 21 3 15 -5
17 -68 17 -48 0 -72 -4 -75 -12z"/>
<path d="M1850 707 c-75 -50 -98 -152 -46 -206 52 -54 137 -47 197 15 32 33
32 34 9 34 -13 0 -33 -9 -45 -20 -56 -53 -145 -24 -145 46 0 99 110 161 168
94 9 -11 27 -20 39 -20 23 0 23 1 8 30 -20 39 -43 50 -103 50 -34 0 -59 -7
-82 -23z"/>
<path d="M2112 613 c-27 -143 -27 -143 -3 -143 15 0 20 10 26 48 4 26 11 69
17 97 l11 49 48 -97 c37 -72 54 -97 68 -97 20 0 21 2 52 168 6 31 13 65 16 75
4 15 0 18 -18 15 -21 -3 -25 -12 -39 -90 -8 -48 -18 -89 -21 -93 -3 -3 -26 37
-49 90 -35 77 -48 95 -65 95 -20 0 -23 -11 -43 -117z"/>
<path d="M2482 713 c-46 -22 -74 -67 -80 -124 -6 -59 14 -94 65 -115 92 -39
203 44 203 150 0 39 -5 53 -29 77 -25 24 -38 29 -78 29 -26 0 -63 -8 -81 -17z
m123 -38 c44 -43 26 -122 -35 -159 -38 -22 -72 -20 -104 5 -48 38 -27 131 38
163 44 22 73 19 101 -9z"/>
<path d="M2770 726 c0 -6 -38 -212 -44 -238 -4 -16 4 -18 65 -18 62 0 69 2 69
20 0 17 -7 20 -45 20 -42 0 -45 2 -40 23 8 33 35 181 35 190 0 4 -9 7 -20 7
-11 0 -20 -2 -20 -4z"/>
<path d="M2989 707 c-37 -24 -79 -97 -79 -137 0 -43 35 -88 79 -101 34 -10 47
-9 85 5 108 41 150 163 81 232 -33 33 -117 34 -166 1z m115 -18 c30 -14 51
-60 42 -94 -19 -75 -116 -120 -163 -76 -13 12 -25 32 -29 45 -8 35 20 93 58
116 38 23 57 25 92 9z"/>
<path d="M3329 707 c-104 -70 -106 -203 -4 -237 67 -22 169 31 194 100 l10 30
-85 0 c-68 0 -84 -3 -84 -15 0 -12 13 -15 56 -15 64 0 67 -12 14 -47 -44 -31
-84 -29 -117 3 -75 75 52 219 137 155 30 -21 70 -28 70 -12 0 5 -14 21 -31 35
-41 35 -111 36 -160 3z"/>
<path d="M3601 616 c-26 -139 -26 -146 -3 -146 16 0 22 18 40 118 27 142 27
142 3 142 -15 0 -21 -17 -40 -114z"/>
<path d="M3789 707 c-69 -46 -95 -141 -54 -203 34 -53 131 -52 195 3 55 46 27
60 -36 18 -59 -40 -111 -29 -133 27 -36 96 102 193 167 118 19 -23 52 -27 52
-6 0 7 -12 25 -26 40 -36 35 -115 37 -165 3z"/>
<path d="M4110 707 c-64 -43 -93 -131 -61 -190 44 -83 193 -62 241 34 30 58
27 114 -9 150 -25 25 -37 29 -84 29 -40 0 -63 -6 -87 -23z m137 -33 c37 -37
28 -96 -21 -141 -42 -39 -81 -43 -120 -12 -48 38 -28 131 36 162 47 23 75 21
105 -9z"/>
<path d="M6020 708 c-29 -67 -270 -683 -270 -690 0 -5 43 -7 97 -6 l96 3 17
50 17 50 126 3 126 3 17 -56 18 -55 98 0 c54 0 98 3 98 8 0 7 -83 225 -226
595 l-46 117 -79 0 c-73 0 -80 -2 -89 -22z m120 -315 c18 -60 35 -114 37 -120
4 -10 -14 -13 -71 -13 -51 0 -76 4 -76 11 0 20 65 229 71 229 3 0 21 -48 39
-107z"/>
<path d="M6540 371 l0 -361 90 0 90 0 0 281 0 281 65 -4 c55 -3 70 -8 93 -31
38 -39 38 -105 0 -144 -22 -22 -39 -27 -88 -31 -33 -2 -60 -8 -58 -12 2 -4 44
-82 93 -174 l90 -166 93 0 c50 0 92 2 92 5 0 3 -32 62 -71 131 l-72 126 29 24
c16 13 32 23 35 24 3 0 18 22 32 49 22 39 27 62 27 115 0 78 -18 128 -63 174
-56 59 -82 65 -289 70 l-188 4 0 -361z"/>
<path d="M7437 720 c-61 -16 -135 -58 -177 -101 -152 -157 -123 -416 61 -538
72 -48 139 -65 233 -59 183 12 318 144 333 326 l6 72 -202 0 -201 0 0 -70 0
-70 100 0 c55 0 100 -3 100 -6 0 -20 -39 -65 -70 -83 -44 -25 -124 -28 -173
-7 -89 37 -136 152 -107 258 39 137 224 184 312 79 26 -31 27 -31 122 -31 l95
0 -11 31 c-19 54 -111 143 -180 174 -69 31 -173 42 -241 25z"/>
<path d="M8255 717 c-137 -46 -218 -129 -251 -257 -42 -166 38 -335 194 -408
49 -23 70 -27 152 -27 84 0 102 3 158 29 80 37 152 114 182 194 29 78 26 205
-8 274 -61 123 -172 197 -308 204 -50 2 -94 -1 -119 -9z m182 -158 c124 -60
140 -270 26 -356 -41 -31 -121 -42 -177 -23 -51 16 -103 81 -117 145 -38 171
118 307 268 234z"/>
<path d="M8956 710 c-90 -35 -138 -100 -140 -185 -1 -94 61 -162 197 -215 104
-41 131 -80 87 -128 -39 -41 -103 -23 -118 33 l-8 30 -88 3 -88 3 7 -43 c21
-126 102 -188 245 -188 116 0 178 33 216 114 29 63 31 126 4 182 -24 49 -63
77 -183 134 -48 23 -92 51 -98 62 -14 25 11 65 46 74 32 8 75 -19 75 -46 0
-18 7 -20 85 -20 l85 0 0 27 c0 43 -38 109 -78 136 -72 49 -163 59 -246 27z"/>
<path d="M4992 391 c-12 -21 -22 -41 -22 -45 0 -3 23 -6 50 -6 28 0 50 2 50 6
0 9 -45 84 -51 84 -3 0 -15 -17 -27 -39z"/>
<path d="M2210 388 c-50 -26 -90 -78 -90 -117 0 -40 26 -69 86 -98 56 -26 68
-49 39 -73 -21 -17 -50 -8 -53 18 -3 19 -9 22 -53 22 l-49 0 0 -40 c0 -68 46
-97 141 -88 70 7 119 55 126 122 7 56 -5 72 -83 116 -30 17 -54 32 -54 34 0
34 55 51 66 21 4 -11 21 -15 55 -15 43 0 49 3 49 20 0 41 -29 79 -68 89 -52
15 -62 14 -112 -11z"/>
<path d="M4060 395 c-209 -67 -231 -363 -29 -383 78 -7 137 14 195 72 57 58
80 119 71 188 -14 103 -123 160 -237 123z m95 -81 c21 -8 45 -56 45 -91 0 -35
-31 -87 -66 -109 -65 -43 -144 -5 -144 68 0 92 87 162 165 132z"/>
<path d="M32 273 c-33 -188 -30 -218 28 -248 34 -18 112 -20 143 -4 34 18 78
62 89 89 7 19 58 269 58 286 0 2 -22 4 -49 4 l-48 0 -23 -122 c-12 -68 -26
-133 -31 -145 -20 -53 -89 -49 -89 5 0 15 9 74 20 132 11 58 20 111 20 117 0
9 -16 13 -48 13 l-47 0 -23 -127z"/>
<path d="M450 397 c0 -2 -16 -88 -35 -191 -19 -104 -35 -190 -35 -192 0 -2 20
-4 45 -4 53 0 48 -9 72 130 l18 105 52 -115 52 -115 43 0 42 0 32 170 c43 227
44 215 -10 215 l-44 0 -16 -87 c-9 -49 -16 -96 -16 -105 0 -45 -22 -18 -66 82
l-48 110 -43 0 c-24 0 -43 -1 -43 -3z"/>
<path d="M875 388 c-7 -21 -65 -346 -65 -363 0 -13 9 -15 47 -13 l47 3 33 170
c42 227 43 215 -12 215 -28 0 -47 -5 -50 -12z"/>
<path d="M1050 398 c0 -10 51 -348 55 -365 5 -20 12 -23 53 -23 l48 0 78 153
c44 83 90 171 104 195 l24 42 -54 0 -53 -1 -60 -128 c-33 -71 -63 -124 -66
-117 -4 6 -10 49 -13 96 -12 154 -11 150 -67 150 -27 0 -49 -1 -49 -2z"/>
<path d="M1480 391 c0 -8 -56 -318 -65 -358 -5 -23 -4 -23 104 -23 104 0 109
1 115 22 3 13 6 33 6 46 0 20 -5 22 -55 22 -48 0 -55 3 -55 19 0 44 10 51 71
51 56 0 59 1 59 24 0 13 3 31 6 40 5 13 -3 16 -50 16 -56 0 -56 0 -56 30 0 30
0 30 59 30 33 0 62 3 64 8 2 4 7 24 11 45 l7 37 -111 0 c-60 0 -110 -4 -110
-9z"/>
<path d="M1785 378 c-9 -41 -65 -346 -65 -358 0 -7 17 -10 47 -8 l47 3 17 83
c9 45 18 85 21 87 3 3 18 -34 35 -83 l30 -87 53 -3 c47 -3 52 -1 45 15 -4 10
-16 42 -27 72 l-20 54 32 25 c82 64 78 188 -8 211 -20 6 -74 11 -119 11 -77 0
-83 -1 -88 -22z m163 -80 c34 -34 -12 -98 -69 -98 -16 0 -29 2 -29 5 0 2 5 27
11 55 10 47 12 50 43 50 18 0 37 -5 44 -12z"/>
<path d="M2485 378 c-9 -40 -65 -346 -65 -357 0 -16 90 -14 95 2 3 6 20 94 38
195 l34 182 -49 0 c-41 0 -48 -3 -53 -22z"/>
<path d="M2657 383 c-20 -72 -20 -72 21 -75 l39 -3 -27 -143 c-14 -78 -24
-145 -21 -147 2 -3 23 -5 47 -5 l42 0 11 49 c6 27 18 94 28 150 l17 101 38 0
c33 0 38 3 44 28 3 15 8 35 11 45 4 15 -6 17 -121 17 -110 0 -125 -2 -129 -17z"/>
<path d="M3056 378 c-39 -64 -206 -356 -206 -361 0 -4 22 -7 50 -7 45 0 51 3
65 30 15 29 18 30 85 30 68 0 69 0 72 -27 3 -26 6 -28 57 -31 51 -3 53 -2 48
20 -3 13 -20 101 -38 196 l-33 172 -43 0 c-33 0 -46 -5 -57 -22z m43 -195 c1
-32 0 -33 -39 -33 l-40 0 32 63 c32 61 32 62 39 32 4 -16 7 -45 8 -62z"/>
<path d="M3370 391 c0 -8 -56 -318 -65 -358 -5 -21 -2 -23 44 -23 55 0 48 -13
72 118 7 35 15 60 19 55 4 -4 20 -45 35 -90 l28 -83 49 0 c26 0 48 4 48 8 0 5
-11 37 -25 72 -26 66 -26 66 16 90 40 23 63 126 38 172 -18 33 -71 48 -169 48
-49 0 -90 -4 -90 -9z m170 -100 c22 -41 -19 -91 -74 -91 -28 0 -30 8 -20 73 6
35 8 37 45 37 28 0 41 -5 49 -19z"/>
<path d="M3710 218 c-18 -101 -35 -189 -38 -196 -3 -8 10 -12 47 -12 28 0 51
1 51 3 0 1 16 85 35 187 19 102 35 188 35 193 0 4 -22 7 -48 7 l-48 0 -34
-182z"/>
<path d="M9334 105 c-19 -30 -11 -60 22 -82 31 -20 69 -6 86 31 28 62 -70 109
-108 51z m84 3 c28 -28 7 -78 -33 -78 -27 0 -45 18 -45 45 0 27 18 45 45 45
12 0 26 -5 33 -12z"/>
<path d="M9360 74 c0 -20 4 -25 17 -20 9 4 20 1 24 -6 5 -7 7 1 7 20 -1 27 -5
32 -25 32 -18 0 -23 -5 -23 -26z"/>
</g>
</svg>
