<?xml version="1.0" standalone="no"?>
<!DOCTYPE svg PUBLIC "-//W3C//DTD SVG 20010904//EN"
 "http://www.w3.org/TR/2001/REC-SVG-20010904/DTD/svg10.dtd">
<svg version="1.0" xmlns="http://www.w3.org/2000/svg"
 width="277.000000pt" height="300.000000pt" viewBox="0 0 277.000000 300.000000"
 preserveAspectRatio="xMidYMid meet">
<metadata>
Created by potrace 1.16, written by Peter Selinger 2001-2019
</metadata>
<g transform="translate(0.000000,300.000000) scale(0.100000,-0.100000)"
fill="#000000" stroke="none">
<path d="M1163 2930 c-162 -29 -343 -114 -470 -220 -136 -114 -253 -296 -305
-475 -20 -70 -23 -102 -23 -250 0 -202 17 -280 96 -438 64 -126 194 -276 309
-354 165 -112 348 -167 555 -167 267 0 492 93 679 280 138 138 236 326 266
508 15 92 12 277 -6 364 -18 89 -70 222 -116 299 -51 83 -159 205 -234 262
-90 68 -247 144 -354 172 -96 24 -308 35 -397 19z m145 -108 c2 -64 0 -84 -12
-88 -22 -8 -126 14 -170 37 -43 22 -96 67 -96 81 0 20 160 58 230 55 l45 -2 3
-83z m-339 -10 c-74 -50 -168 -170 -228 -289 -17 -35 -37 -63 -44 -63 -33 1
-132 38 -135 51 -4 23 148 179 226 232 88 59 196 111 201 96 2 -6 -7 -18 -20
-27z m98 -44 c26 -17 50 -33 52 -35 2 -1 -10 -35 -27 -75 -32 -75 -52 -132
-71 -205 -10 -37 -16 -43 -38 -43 -40 0 -217 31 -226 40 -12 11 22 86 74 161
42 63 162 189 179 189 5 0 31 -14 57 -32z m193 -66 l45 -8 0 -149 0 -150 -129
3 c-71 1 -131 4 -134 6 -6 7 39 149 75 234 35 81 36 82 67 77 17 -3 51 -9 76
-13z m-644 -254 c42 -13 74 -29 74 -36 0 -32 -31 -72 -56 -72 -13 0 -43 -9
-65 -21 -33 -16 -38 -23 -29 -34 10 -12 9 -25 -1 -60 -7 -25 -16 -45 -19 -45
-4 0 -15 -6 -25 -14 -19 -14 -19 -14 0 -36 19 -21 19 -21 -3 -27 -12 -3 -22
-11 -22 -18 0 -7 -10 -15 -21 -18 -19 -5 -21 -11 -15 -41 6 -34 5 -36 -19 -36
-24 0 -25 3 -25 53 0 80 46 252 91 345 23 45 45 82 51 82 5 0 43 -10 84 -22z
m358 -68 c26 0 28 -2 22 -32 -3 -18 -8 -52 -12 -75 -3 -23 -13 -44 -20 -47 -8
-3 -14 -1 -14 4 0 6 -11 10 -24 10 -17 0 -29 9 -38 28 -9 18 -22 28 -40 30
-15 2 -32 10 -38 18 -7 8 -18 14 -24 14 -29 0 -78 65 -61 82 3 3 54 -3 113
-13 59 -11 120 -19 136 -19z m524 -3 c3 -31 7 -37 27 -37 13 0 51 12 85 27 40
17 64 23 68 16 13 -20 77 -53 104 -53 18 0 33 8 44 25 9 14 23 25 32 25 9 0
26 10 39 22 19 17 28 20 41 12 9 -6 18 -20 20 -30 2 -11 13 -24 25 -29 32 -14
35 -89 8 -144 -29 -55 -27 -93 7 -132 15 -18 32 -51 38 -73 l10 -41 22 40 c37
69 46 77 88 73 21 -2 41 -10 48 -20 13 -21 0 -36 -16 -20 -20 20 -45 13 -73
-20 -18 -22 -25 -38 -20 -52 9 -29 9 -38 1 -66 -7 -24 -7 -25 9 -5 12 14 15
33 12 63 -5 48 11 65 39 41 30 -24 11 -119 -40 -207 -23 -40 -33 -47 -51 -32
-13 11 -15 8 -15 -16 -1 -16 -9 -47 -20 -69 -12 -24 -19 -62 -20 -96 0 -76
-31 -104 -132 -123 -35 -6 -38 -5 -38 16 0 14 14 36 37 56 34 29 36 32 15 32
-33 0 -45 41 -38 130 l6 75 -50 32 c-56 36 -65 31 -20 -12 17 -16 30 -37 30
-46 0 -23 -53 -49 -104 -50 -36 -1 -35 -2 16 -9 68 -9 84 -20 99 -70 10 -34 9
-42 -10 -69 -32 -44 -83 -57 -163 -42 -83 16 -102 30 -135 96 -25 52 -25 57
-10 72 19 20 42 6 51 -32 5 -19 13 -25 35 -25 16 0 31 6 34 14 7 18 -1 26 -25
26 -10 0 -18 7 -18 15 0 11 12 15 43 16 23 1 34 3 25 6 -22 5 -22 7 -3 43 l16
30 -45 0 c-25 0 -48 5 -52 11 -5 8 -13 4 -24 -11 -11 -15 -23 -21 -34 -17 -27
10 -29 34 -7 66 40 55 20 68 -42 26 -20 -14 -41 -24 -46 -21 -25 16 -38 258
-21 406 10 88 17 113 42 153 17 26 36 46 42 44 6 -2 12 -20 14 -40z m-195 -26
c4 -4 6 -88 5 -187 l-3 -179 -65 0 c-63 0 -65 1 -68 26 -2 15 4 33 12 42 23
23 19 60 -8 86 -15 14 -22 30 -19 42 3 11 0 19 -7 19 -7 0 -29 12 -48 26 -31
24 -36 25 -44 10 -10 -18 -33 -21 -43 -6 -3 5 -1 39 6 75 l11 66 132 -7 c72
-3 134 -10 139 -13z m-853 -418 c0 -9 -7 -24 -15 -33 -13 -14 -10 -19 21 -44
39 -31 60 -29 74 9 5 14 14 25 20 25 5 0 10 7 10 15 0 8 4 15 9 15 12 0 22
-83 10 -94 -5 -6 -9 -20 -9 -32 0 -13 -7 -29 -15 -38 -8 -8 -15 -19 -15 -25 0
-6 -4 -11 -10 -11 -5 0 -10 -18 -10 -40 0 -34 -3 -40 -20 -40 -16 0 -19 -4
-12 -17 5 -10 7 -25 5 -33 -3 -9 1 -6 10 5 15 19 17 19 47 3 18 -10 40 -18 50
-18 16 0 30 -18 30 -41 0 -11 -28 -23 -78 -34 l-33 -7 -40 87 c-45 96 -89 255
-89 321 0 42 1 44 30 44 21 0 30 -5 30 -17z m858 -150 l-3 -168 -134 -7 c-74
-5 -136 -6 -139 -4 -5 6 -32 184 -32 218 0 20 8 32 28 42 15 8 45 30 67 50 39
36 41 36 128 36 l87 0 -2 -167z m-328 -60 c8 -60 15 -112 15 -118 0 -5 -22
-13 -50 -17 -119 -18 -191 -30 -209 -35 -14 -4 -16 -2 -10 8 5 8 10 29 11 48
1 18 9 41 18 50 8 10 15 29 15 43 0 32 44 72 115 104 81 37 79 38 95 -83z
m330 -313 c0 -128 -3 -172 -12 -174 -7 -3 -39 -7 -70 -10 l-58 -6 -34 67 c-33
67 -77 187 -90 250 -7 32 -7 32 36 36 24 2 85 4 136 5 l92 2 0 -170z m-276 58
c15 -51 45 -131 67 -177 21 -46 39 -85 39 -86 0 -1 -13 -8 -29 -15 -16 -6 -37
-20 -47 -31 -9 -10 -23 -19 -30 -19 -21 0 -142 118 -190 185 -55 77 -108 185
-97 195 9 10 170 37 223 39 l35 1 29 -92z m-285 -44 c52 -102 137 -211 212
-273 39 -31 47 -41 29 -36 -44 13 -163 76 -215 113 -105 76 -239 221 -221 240
9 8 113 40 136 41 9 1 32 -33 59 -85z m559 -296 l-3 -73 -45 2 c-62 3 -185 24
-201 34 -10 6 -9 12 6 29 38 42 131 78 203 79 l43 1 -3 -72z"/>
<path d="M1414 2163 c-11 -82 -7 -113 12 -113 16 0 19 -16 4 -25 -21 -13 -9
-26 23 -25 70 4 84 0 95 -25 17 -36 30 -31 42 17 20 71 -8 98 -101 98 -36 0
-60 40 -42 68 8 13 7 24 -3 45 -8 15 -16 27 -18 27 -2 0 -7 -30 -12 -67z"/>
<path d="M1650 2052 c0 -5 13 -21 29 -36 25 -24 36 -27 102 -28 41 -1 79 -5
85 -10 7 -5 16 -2 24 7 11 13 9 20 -15 45 -28 29 -31 30 -127 30 -54 0 -98 -4
-98 -8z"/>
<path d="M698 873 c376 -2 988 -2 1360 0 372 1 65 2 -683 2 -748 0 -1053 -1
-677 -2z"/>
<path d="M698 643 c376 -2 988 -2 1360 0 372 1 65 2 -683 2 -748 0 -1053 -1
-677 -2z"/>
<path d="M174 570 c-38 -15 -64 -59 -64 -107 0 -62 24 -98 87 -128 54 -27 73
-56 53 -80 -17 -20 -49 -19 -95 5 -22 11 -41 20 -42 20 -2 0 -3 -17 -3 -38 0
-49 35 -72 110 -72 43 0 56 5 80 28 36 36 45 85 27 137 -11 32 -25 47 -73 76
-45 27 -60 42 -62 62 -3 25 -1 27 35 27 21 0 50 -7 66 -14 l27 -15 0 40 c0 36
-3 41 -35 55 -38 16 -79 17 -111 4z"/>
<path d="M1332 565 c-59 -26 -78 -119 -37 -181 8 -13 38 -35 65 -49 59 -30 77
-56 54 -79 -21 -21 -52 -20 -92 4 -18 11 -35 20 -37 20 -3 0 -5 -18 -5 -40 0
-34 4 -42 30 -55 16 -8 51 -15 77 -15 75 1 113 43 113 124 0 54 -28 91 -95
127 -73 39 -72 86 2 76 21 -2 48 -8 61 -12 20 -7 22 -4 22 24 0 55 -90 87
-158 56z"/>
<path d="M458 513 c-9 -32 -35 -119 -57 -193 -22 -74 -41 -139 -41 -143 0 -5
17 -7 38 -5 32 3 38 7 48 38 l12 35 67 0 68 0 12 -35 c10 -30 16 -35 48 -38
25 -2 37 1 37 10 0 7 -28 97 -62 200 l-63 188 -45 0 -46 0 -16 -57z"/>
<path d="M732 373 l3 -198 113 -3 113 -3 -3 38 -3 38 -55 1 c-99 1 -90 -16
-90 164 l0 160 -40 0 -40 0 2 -197z"/>
<path d="M1010 370 l0 -200 111 0 110 0 -3 37 -3 38 -70 0 -70 0 -3 47 -3 47
68 3 68 3 0 34 0 34 -65 1 -65 1 -3 43 -3 42 69 0 c38 0 71 2 74 5 2 3 3 18 0
35 l-4 30 -104 0 -104 0 0 -200z"/>
<path d="M1560 370 l0 -200 35 0 35 0 0 200 0 200 -35 0 -35 0 0 -200z"/>
<path d="M1785 558 c-2 -7 -27 -89 -55 -183 -28 -93 -53 -178 -56 -187 -4 -15
1 -18 34 -18 37 0 39 2 51 40 l12 40 68 0 68 0 12 -40 c11 -38 14 -40 51 -40
22 0 40 2 40 3 0 2 -29 91 -65 198 -36 106 -65 195 -65 196 0 10 -91 1 -95 -9z"/>
<path d="M2050 370 l0 -200 35 0 35 0 0 121 c0 72 4 119 10 117 5 -1 42 -55
83 -118 66 -103 77 -115 105 -118 l32 -3 0 200 0 201 -35 0 -35 0 0 -108 c0
-60 -3 -112 -6 -115 -4 -4 -40 45 -81 108 -71 110 -77 115 -109 115 l-34 0 0
-200z"/>
<path d="M2505 558 c-10 -31 -55 -179 -75 -248 -12 -41 -25 -85 -31 -98 -15
-37 -11 -42 30 -42 37 0 40 2 48 37 l9 38 70 3 71 3 12 -41 c11 -38 14 -40 52
-40 33 0 40 3 35 15 -3 9 -33 99 -67 200 l-61 185 -44 0 c-27 0 -46 -5 -49
-12z"/>
<path d="M507 43 c271 -2 715 -2 985 0 271 1 50 2 -492 2 -542 0 -763 -1 -493
-2z"/>
</g>
</svg>
